{
	"asset":{
		"generator":"Khronos glTF Blender I/O v4.3.47",
		"version":"2.0"
	},
	"scene":0,
	"scenes":[
		{
			"name":"Scene",
			"nodes":[
				0
			]
		}
	],
	"nodes":[
		{
			"mesh":0,
			"name":"Balk1"
		}
	],
	"materials":[
		{
			"doubleSided":true,
			"name":"Balk",
			"normalTexture":{
				"index":0
			},
			"pbrMetallicRoughness":{
				"baseColorTexture":{
					"index":1
				},
				"metallicRoughnessTexture":{
					"index":2
				},
				"roughnessFactor":0.8211145401000977
			}
		}
	],
	"meshes":[
		{
			"name":"balk1_lowLow001_Balk_0",
			"primitives":[
				{
					"attributes":{
						"POSITION":0,
						"NORMAL":1,
						"TEXCOORD_0":2,
						"TEXCOORD_1":3
					},
					"indices":4,
					"material":0
				}
			]
		}
	],
	"textures":[
		{
			"sampler":0,
			"source":0
		},
		{
			"sampler":0,
			"source":1
		},
		{
			"sampler":0,
			"source":2
		}
	],
	"images":[
		{
			"mimeType":"image/png",
			"name":"Balk_normal",
			"uri":"Textures/Balk_normal.png"
		},
		{
			"mimeType":"image/png",
			"name":"Balk_baseColor",
			"uri":"Textures/Balk_baseColor.png"
		},
		{
			"mimeType":"image/png",
			"name":"Balk_metallicRoughness",
			"uri":"Textures/Balk_metallicRoughness.png"
		}
	],
	"accessors":[
		{
			"bufferView":0,
			"componentType":5126,
			"count":69,
			"max":[
				0.0852975845336914,
				2.038321018218994,
				0.07475900650024414
			],
			"min":[
				-0.07590293884277344,
				0.0005272626876831055,
				-0.08644247055053711
			],
			"type":"VEC3"
		},
		{
			"bufferView":1,
			"componentType":5126,
			"count":69,
			"type":"VEC3"
		},
		{
			"bufferView":2,
			"componentType":5126,
			"count":69,
			"type":"VEC2"
		},
		{
			"bufferView":3,
			"componentType":5126,
			"count":69,
			"type":"VEC2"
		},
		{
			"bufferView":4,
			"componentType":5123,
			"count":276,
			"type":"SCALAR"
		}
	],
	"bufferViews":[
		{
			"buffer":0,
			"byteLength":828,
			"byteOffset":0,
			"target":34962
		},
		{
			"buffer":0,
			"byteLength":828,
			"byteOffset":828,
			"target":34962
		},
		{
			"buffer":0,
			"byteLength":552,
			"byteOffset":1656,
			"target":34962
		},
		{
			"buffer":0,
			"byteLength":552,
			"byteOffset":2208,
			"target":34962
		},
		{
			"buffer":0,
			"byteLength":552,
			"byteOffset":2760,
			"target":34963
		}
	],
	"samplers":[
		{
			"magFilter":9729,
			"minFilter":9987
		}
	],
	"buffers":[
		{
			"byteLength":3312,
			"uri":"Balk1.bin"
		}
	]
}
