{
	"asset":{
		"generator":"Khronos glTF Blender I/O v4.3.47",
		"version":"2.0"
	},
	"scene":0,
	"scenes":[
		{
			"name":"Scene",
			"nodes":[
				0
			]
		}
	],
	"nodes":[
		{
			"mesh":0,
			"name":"Barrel3"
		}
	],
	"materials":[
		{
			"doubleSided":true,
			"name":"Barrel",
			"normalTexture":{
				"index":0
			},
			"pbrMetallicRoughness":{
				"baseColorTexture":{
					"index":1
				},
				"metallicRoughnessTexture":{
					"index":2
				}
			}
		}
	],
	"meshes":[
		{
			"name":"Barrel3_low_Barrel_0",
			"primitives":[
				{
					"attributes":{
						"POSITION":0,
						"NORMAL":1,
						"TEXCOORD_0":2,
						"TEXCOORD_1":3
					},
					"indices":4,
					"material":0
				}
			]
		}
	],
	"textures":[
		{
			"sampler":0,
			"source":0
		},
		{
			"sampler":0,
			"source":1
		},
		{
			"sampler":0,
			"source":2
		}
	],
	"images":[
		{
			"mimeType":"image/png",
			"name":"Barrel_normal",
			"uri":"Textures/Barrel_normal.png"
		},
		{
			"mimeType":"image/png",
			"name":"Barrel_baseColor",
			"uri":"Textures/Barrel_baseColor.png"
		},
		{
			"mimeType":"image/png",
			"name":"Barrel_metallicRoughness",
			"uri":"Textures/Barrel_metallicRoughness.png"
		}
	],
	"accessors":[
		{
			"bufferView":0,
			"componentType":5126,
			"count":639,
			"max":[
				0.3206959068775177,
				0.701256275177002,
				0.3217613697052002
			],
			"min":[
				-0.272278755903244,
				-0.00010532140731811523,
				-0.4037485122680664
			],
			"type":"VEC3"
		},
		{
			"bufferView":1,
			"componentType":5126,
			"count":639,
			"type":"VEC3"
		},
		{
			"bufferView":2,
			"componentType":5126,
			"count":639,
			"type":"VEC2"
		},
		{
			"bufferView":3,
			"componentType":5126,
			"count":639,
			"type":"VEC2"
		},
		{
			"bufferView":4,
			"componentType":5123,
			"count":2652,
			"type":"SCALAR"
		}
	],
	"bufferViews":[
		{
			"buffer":0,
			"byteLength":7668,
			"byteOffset":0,
			"target":34962
		},
		{
			"buffer":0,
			"byteLength":7668,
			"byteOffset":7668,
			"target":34962
		},
		{
			"buffer":0,
			"byteLength":5112,
			"byteOffset":15336,
			"target":34962
		},
		{
			"buffer":0,
			"byteLength":5112,
			"byteOffset":20448,
			"target":34962
		},
		{
			"buffer":0,
			"byteLength":5304,
			"byteOffset":25560,
			"target":34963
		}
	],
	"samplers":[
		{
			"magFilter":9729,
			"minFilter":9987
		}
	],
	"buffers":[
		{
			"byteLength":30864,
			"uri":"Barrel3.bin"
		}
	]
}
