{
	"asset":{
		"generator":"Khronos glTF Blender I/O v4.3.47",
		"version":"2.0"
	},
	"scene":0,
	"scenes":[
		{
			"name":"Scene",
			"nodes":[
				0
			]
		}
	],
	"nodes":[
		{
			"mesh":0,
			"name":"Box192"
		}
	],
	"materials":[
		{
			"doubleSided":true,
			"name":"Box1",
			"normalTexture":{
				"index":0
			},
			"pbrMetallicRoughness":{
				"baseColorTexture":{
					"index":1
				},
				"metallicRoughnessTexture":{
					"index":2
				}
			}
		}
	],
	"meshes":[
		{
			"name":"Box192_low_Box1_0",
			"primitives":[
				{
					"attributes":{
						"POSITION":0,
						"NORMAL":1,
						"TEXCOORD_0":2,
						"TEXCOORD_1":3
					},
					"indices":4,
					"material":0
				}
			]
		}
	],
	"textures":[
		{
			"sampler":0,
			"source":0
		},
		{
			"sampler":0,
			"source":1
		},
		{
			"sampler":0,
			"source":2
		}
	],
	"images":[
		{
			"mimeType":"image/png",
			"name":"Box1_normal",
			"uri":"Textures/Box1_normal.png"
		},
		{
			"mimeType":"image/png",
			"name":"Box1_baseColor",
			"uri":"Textures/Box1_baseColor.png"
		},
		{
			"mimeType":"image/png",
			"name":"Box1_metallicRoughness",
			"uri":"Textures/Box1_metallicRoughness.png"
		}
	],
	"accessors":[
		{
			"bufferView":0,
			"componentType":5126,
			"count":1368,
			"max":[
				0.4417010545730591,
				0.7987152934074402,
				0.401385635137558
			],
			"min":[
				-0.4417017698287964,
				0.0012844502925872803,
				-0.40138545632362366
			],
			"type":"VEC3"
		},
		{
			"bufferView":1,
			"componentType":5126,
			"count":1368,
			"type":"VEC3"
		},
		{
			"bufferView":2,
			"componentType":5126,
			"count":1368,
			"type":"VEC2"
		},
		{
			"bufferView":3,
			"componentType":5126,
			"count":1368,
			"type":"VEC2"
		},
		{
			"bufferView":4,
			"componentType":5123,
			"count":4536,
			"type":"SCALAR"
		}
	],
	"bufferViews":[
		{
			"buffer":0,
			"byteLength":16416,
			"byteOffset":0,
			"target":34962
		},
		{
			"buffer":0,
			"byteLength":16416,
			"byteOffset":16416,
			"target":34962
		},
		{
			"buffer":0,
			"byteLength":10944,
			"byteOffset":32832,
			"target":34962
		},
		{
			"buffer":0,
			"byteLength":10944,
			"byteOffset":43776,
			"target":34962
		},
		{
			"buffer":0,
			"byteLength":9072,
			"byteOffset":54720,
			"target":34963
		}
	],
	"samplers":[
		{
			"magFilter":9729,
			"minFilter":9987
		}
	],
	"buffers":[
		{
			"byteLength":63792,
			"uri":"Box192.bin"
		}
	]
}
