{
	"asset":{
		"generator":"Khronos glTF Blender I/O v4.3.47",
		"version":"2.0"
	},
	"scene":0,
	"scenes":[
		{
			"name":"Scene",
			"nodes":[
				0
			]
		}
	],
	"nodes":[
		{
			"mesh":0,
			"name":"Cheer31"
		}
	],
	"materials":[
		{
			"doubleSided":true,
			"name":"Cheer2",
			"normalTexture":{
				"index":0
			},
			"pbrMetallicRoughness":{
				"baseColorTexture":{
					"index":1
				},
				"metallicRoughnessTexture":{
					"index":2
				}
			}
		}
	],
	"meshes":[
		{
			"name":"Cheer31_low_Cheer2_0",
			"primitives":[
				{
					"attributes":{
						"POSITION":0,
						"NORMAL":1,
						"TEXCOORD_0":2,
						"TEXCOORD_1":3
					},
					"indices":4,
					"material":0
				}
			]
		}
	],
	"textures":[
		{
			"sampler":0,
			"source":0
		},
		{
			"sampler":0,
			"source":1
		},
		{
			"sampler":0,
			"source":2
		}
	],
	"images":[
		{
			"mimeType":"image/png",
			"name":"Cheer2_normal",
			"uri":"Textures/Cheer2_normal.png"
		},
		{
			"mimeType":"image/png",
			"name":"Cheer2_baseColor",
			"uri":"Textures/Cheer2_baseColor.png"
		},
		{
			"mimeType":"image/png",
			"name":"Cheer2_metallicRoughness",
			"uri":"Textures/Cheer2_metallicRoughness.png"
		}
	],
	"accessors":[
		{
			"bufferView":0,
			"componentType":5126,
			"count":637,
			"max":[
				0.243865966796875,
				0.782499372959137,
				0.24101459980010986
			],
			"min":[
				-0.23888301849365234,
				0.0002795755863189697,
				-0.24173462390899658
			],
			"type":"VEC3"
		},
		{
			"bufferView":1,
			"componentType":5126,
			"count":637,
			"type":"VEC3"
		},
		{
			"bufferView":2,
			"componentType":5126,
			"count":637,
			"type":"VEC2"
		},
		{
			"bufferView":3,
			"componentType":5126,
			"count":637,
			"type":"VEC2"
		},
		{
			"bufferView":4,
			"componentType":5123,
			"count":1701,
			"type":"SCALAR"
		}
	],
	"bufferViews":[
		{
			"buffer":0,
			"byteLength":7644,
			"byteOffset":0,
			"target":34962
		},
		{
			"buffer":0,
			"byteLength":7644,
			"byteOffset":7644,
			"target":34962
		},
		{
			"buffer":0,
			"byteLength":5096,
			"byteOffset":15288,
			"target":34962
		},
		{
			"buffer":0,
			"byteLength":5096,
			"byteOffset":20384,
			"target":34962
		},
		{
			"buffer":0,
			"byteLength":3402,
			"byteOffset":25480,
			"target":34963
		}
	],
	"samplers":[
		{
			"magFilter":9729,
			"minFilter":9987
		}
	],
	"buffers":[
		{
			"byteLength":28884,
			"uri":"Cheer31.bin"
		}
	]
}
