{
	"asset":{
		"generator":"Khronos glTF Blender I/O v4.3.47",
		"version":"2.0"
	},
	"scene":0,
	"scenes":[
		{
			"name":"Scene",
			"nodes":[
				0
			]
		}
	],
	"nodes":[
		{
			"mesh":0,
			"name":"Cheer23"
		}
	],
	"materials":[
		{
			"doubleSided":true,
			"name":"Cheer2",
			"normalTexture":{
				"index":0
			},
			"pbrMetallicRoughness":{
				"baseColorTexture":{
					"index":1
				},
				"metallicRoughnessTexture":{
					"index":2
				}
			}
		}
	],
	"meshes":[
		{
			"name":"Cheer23_low_Cheer2_0",
			"primitives":[
				{
					"attributes":{
						"POSITION":0,
						"NORMAL":1,
						"TEXCOORD_0":2,
						"TEXCOORD_1":3
					},
					"indices":4,
					"material":0
				}
			]
		}
	],
	"textures":[
		{
			"sampler":0,
			"source":0
		},
		{
			"sampler":0,
			"source":1
		},
		{
			"sampler":0,
			"source":2
		}
	],
	"images":[
		{
			"mimeType":"image/png",
			"name":"Cheer2_normal",
			"uri":"Textures/Cheer2_normal.png"
		},
		{
			"mimeType":"image/png",
			"name":"Cheer2_baseColor",
			"uri":"Textures/Cheer2_baseColor.png"
		},
		{
			"mimeType":"image/png",
			"name":"Cheer2_metallicRoughness",
			"uri":"Textures/Cheer2_metallicRoughness.png"
		}
	],
	"accessors":[
		{
			"bufferView":0,
			"componentType":5126,
			"count":263,
			"max":[
				0.2891557216644287,
				0.5231850147247314,
				0.28646278381347656
			],
			"min":[
				-0.28043389320373535,
				-0.0010462701320648193,
				-0.2831265926361084
			],
			"type":"VEC3"
		},
		{
			"bufferView":1,
			"componentType":5126,
			"count":263,
			"type":"VEC3"
		},
		{
			"bufferView":2,
			"componentType":5126,
			"count":263,
			"type":"VEC2"
		},
		{
			"bufferView":3,
			"componentType":5126,
			"count":263,
			"type":"VEC2"
		},
		{
			"bufferView":4,
			"componentType":5123,
			"count":1017,
			"type":"SCALAR"
		}
	],
	"bufferViews":[
		{
			"buffer":0,
			"byteLength":3156,
			"byteOffset":0,
			"target":34962
		},
		{
			"buffer":0,
			"byteLength":3156,
			"byteOffset":3156,
			"target":34962
		},
		{
			"buffer":0,
			"byteLength":2104,
			"byteOffset":6312,
			"target":34962
		},
		{
			"buffer":0,
			"byteLength":2104,
			"byteOffset":8416,
			"target":34962
		},
		{
			"buffer":0,
			"byteLength":2034,
			"byteOffset":10520,
			"target":34963
		}
	],
	"samplers":[
		{
			"magFilter":9729,
			"minFilter":9987
		}
	],
	"buffers":[
		{
			"byteLength":12556,
			"uri":"Cheer23.bin"
		}
	]
}
