{
	"asset":{
		"generator":"Khronos glTF Blender I/O v4.3.47",
		"version":"2.0"
	},
	"scene":0,
	"scenes":[
		{
			"name":"Scene",
			"nodes":[
				0
			]
		}
	],
	"nodes":[
		{
			"mesh":0,
			"name":"Door1"
		}
	],
	"materials":[
		{
			"doubleSided":true,
			"name":"Door_and_books",
			"normalTexture":{
				"index":0
			},
			"pbrMetallicRoughness":{
				"baseColorTexture":{
					"index":1
				},
				"metallicRoughnessTexture":{
					"index":2
				}
			}
		}
	],
	"meshes":[
		{
			"name":"Door1_low_Door and books_0",
			"primitives":[
				{
					"attributes":{
						"POSITION":0,
						"NORMAL":1,
						"TEXCOORD_0":2,
						"TEXCOORD_1":3
					},
					"indices":4,
					"material":0
				}
			]
		}
	],
	"textures":[
		{
			"sampler":0,
			"source":0
		},
		{
			"sampler":0,
			"source":1
		},
		{
			"sampler":0,
			"source":2
		}
	],
	"images":[
		{
			"mimeType":"image/png",
			"name":"Door_and_books_normal",
			"uri":"Textures/Door_and_books_normal.png"
		},
		{
			"mimeType":"image/png",
			"name":"Door_and_books_baseColor",
			"uri":"Textures/Door_and_books_baseColor.png"
		},
		{
			"mimeType":"image/png",
			"name":"Door_and_books_metallicRoughness",
			"uri":"Textures/Door_and_books_metallicRoughness.png"
		}
	],
	"accessors":[
		{
			"bufferView":0,
			"componentType":5126,
			"count":451,
			"max":[
				0.19805669784545898,
				1.7147597074508667,
				0.5226860642433167
			],
			"min":[
				-0.1815042793750763,
				-0.01125955581665039,
				-0.6494039297103882
			],
			"type":"VEC3"
		},
		{
			"bufferView":1,
			"componentType":5126,
			"count":451,
			"type":"VEC3"
		},
		{
			"bufferView":2,
			"componentType":5126,
			"count":451,
			"type":"VEC2"
		},
		{
			"bufferView":3,
			"componentType":5126,
			"count":451,
			"type":"VEC2"
		},
		{
			"bufferView":4,
			"componentType":5123,
			"count":1530,
			"type":"SCALAR"
		}
	],
	"bufferViews":[
		{
			"buffer":0,
			"byteLength":5412,
			"byteOffset":0,
			"target":34962
		},
		{
			"buffer":0,
			"byteLength":5412,
			"byteOffset":5412,
			"target":34962
		},
		{
			"buffer":0,
			"byteLength":3608,
			"byteOffset":10824,
			"target":34962
		},
		{
			"buffer":0,
			"byteLength":3608,
			"byteOffset":14432,
			"target":34962
		},
		{
			"buffer":0,
			"byteLength":3060,
			"byteOffset":18040,
			"target":34963
		}
	],
	"samplers":[
		{
			"magFilter":9729,
			"minFilter":9987
		}
	],
	"buffers":[
		{
			"byteLength":21100,
			"uri":"Door1.bin"
		}
	]
}
