{
	"asset":{
		"generator":"Khronos glTF Blender I/O v4.3.47",
		"version":"2.0"
	},
	"scene":0,
	"scenes":[
		{
			"name":"Scene",
			"nodes":[
				0
			]
		}
	],
	"nodes":[
		{
			"mesh":0,
			"name":"Locker012"
		}
	],
	"materials":[
		{
			"doubleSided":true,
			"name":"Cocker1",
			"normalTexture":{
				"index":0
			},
			"pbrMetallicRoughness":{
				"baseColorTexture":{
					"index":1
				},
				"metallicRoughnessTexture":{
					"index":2
				}
			}
		}
	],
	"meshes":[
		{
			"name":"locker012_low_Cocker1_0",
			"primitives":[
				{
					"attributes":{
						"POSITION":0,
						"NORMAL":1,
						"TEXCOORD_0":2,
						"TEXCOORD_1":3
					},
					"indices":4,
					"material":0
				}
			]
		}
	],
	"textures":[
		{
			"sampler":0,
			"source":0
		},
		{
			"sampler":0,
			"source":1
		},
		{
			"sampler":0,
			"source":2
		}
	],
	"images":[
		{
			"mimeType":"image/png",
			"name":"Cocker1_normal",
			"uri":"Textures/Cocker1_normal.png"
		},
		{
			"mimeType":"image/png",
			"name":"Cocker1_baseColor",
			"uri":"Textures/Cocker1_baseColor.png"
		},
		{
			"mimeType":"image/png",
			"name":"Cocker1_metallicRoughness",
			"uri":"Textures/Cocker1_metallicRoughness.png"
		}
	],
	"accessors":[
		{
			"bufferView":0,
			"componentType":5126,
			"count":270,
			"max":[
				0.4769711494445801,
				1.6477043628692627,
				0.2368631362915039
			],
			"min":[
				-0.4798903465270996,
				0.0002835988998413086,
				-0.15877008438110352
			],
			"type":"VEC3"
		},
		{
			"bufferView":1,
			"componentType":5126,
			"count":270,
			"type":"VEC3"
		},
		{
			"bufferView":2,
			"componentType":5126,
			"count":270,
			"type":"VEC2"
		},
		{
			"bufferView":3,
			"componentType":5126,
			"count":270,
			"type":"VEC2"
		},
		{
			"bufferView":4,
			"componentType":5123,
			"count":816,
			"type":"SCALAR"
		}
	],
	"bufferViews":[
		{
			"buffer":0,
			"byteLength":3240,
			"byteOffset":0,
			"target":34962
		},
		{
			"buffer":0,
			"byteLength":3240,
			"byteOffset":3240,
			"target":34962
		},
		{
			"buffer":0,
			"byteLength":2160,
			"byteOffset":6480,
			"target":34962
		},
		{
			"buffer":0,
			"byteLength":2160,
			"byteOffset":8640,
			"target":34962
		},
		{
			"buffer":0,
			"byteLength":1632,
			"byteOffset":10800,
			"target":34963
		}
	],
	"samplers":[
		{
			"magFilter":9729,
			"minFilter":9987
		}
	],
	"buffers":[
		{
			"byteLength":12432,
			"uri":"Locker012.bin"
		}
	]
}
