{
	"asset":{
		"generator":"Khronos glTF Blender I/O v4.3.47",
		"version":"2.0"
	},
	"scene":0,
	"scenes":[
		{
			"name":"Scene",
			"nodes":[
				0
			]
		}
	],
	"nodes":[
		{
			"mesh":0,
			"name":"Scheer1"
		}
	],
	"materials":[
		{
			"doubleSided":true,
			"name":"Scheer1",
			"normalTexture":{
				"index":0
			},
			"pbrMetallicRoughness":{
				"baseColorTexture":{
					"index":1
				},
				"metallicRoughnessTexture":{
					"index":2
				}
			}
		}
	],
	"meshes":[
		{
			"name":"Cube050_lowLow001_Scheer1_0",
			"primitives":[
				{
					"attributes":{
						"POSITION":0,
						"NORMAL":1,
						"TEXCOORD_0":2,
						"TEXCOORD_1":3,
						"TEXCOORD_2":4
					},
					"indices":5,
					"material":0
				}
			]
		}
	],
	"textures":[
		{
			"sampler":0,
			"source":0
		},
		{
			"sampler":0,
			"source":1
		},
		{
			"sampler":0,
			"source":2
		}
	],
	"images":[
		{
			"mimeType":"image/png",
			"name":"Scheer1_normal",
			"uri":"Textures/Scheer1_normal.png"
		},
		{
			"mimeType":"image/png",
			"name":"Scheer1_baseColor",
			"uri":"Textures/Scheer1_baseColor.png"
		},
		{
			"mimeType":"image/png",
			"name":"Scheer1_metallicRoughness",
			"uri":"Textures/Scheer1_metallicRoughness.png"
		}
	],
	"accessors":[
		{
			"bufferView":0,
			"componentType":5126,
			"count":585,
			"max":[
				0.41387224197387695,
				1.0140360593795776,
				0.285868763923645
			],
			"min":[
				-0.2252025604248047,
				0.00122910737991333,
				-0.2874385118484497
			],
			"type":"VEC3"
		},
		{
			"bufferView":1,
			"componentType":5126,
			"count":585,
			"type":"VEC3"
		},
		{
			"bufferView":2,
			"componentType":5126,
			"count":585,
			"type":"VEC2"
		},
		{
			"bufferView":3,
			"componentType":5126,
			"count":585,
			"type":"VEC2"
		},
		{
			"bufferView":4,
			"componentType":5126,
			"count":585,
			"type":"VEC2"
		},
		{
			"bufferView":5,
			"componentType":5123,
			"count":2214,
			"type":"SCALAR"
		}
	],
	"bufferViews":[
		{
			"buffer":0,
			"byteLength":7020,
			"byteOffset":0,
			"target":34962
		},
		{
			"buffer":0,
			"byteLength":7020,
			"byteOffset":7020,
			"target":34962
		},
		{
			"buffer":0,
			"byteLength":4680,
			"byteOffset":14040,
			"target":34962
		},
		{
			"buffer":0,
			"byteLength":4680,
			"byteOffset":18720,
			"target":34962
		},
		{
			"buffer":0,
			"byteLength":4680,
			"byteOffset":23400,
			"target":34962
		},
		{
			"buffer":0,
			"byteLength":4428,
			"byteOffset":28080,
			"target":34963
		}
	],
	"samplers":[
		{
			"magFilter":9729,
			"minFilter":9987
		}
	],
	"buffers":[
		{
			"byteLength":32508,
			"uri":"Scheer1.bin"
		}
	]
}
