{
	"asset":{
		"generator":"Khronos glTF Blender I/O v4.3.47",
		"version":"2.0"
	},
	"scene":0,
	"scenes":[
		{
			"name":"Scene",
			"nodes":[
				0
			]
		}
	],
	"nodes":[
		{
			"mesh":0,
			"name":"Table3_1"
		}
	],
	"materials":[
		{
			"doubleSided":true,
			"name":"Tables2_1",
			"normalTexture":{
				"index":0
			},
			"pbrMetallicRoughness":{
				"baseColorTexture":{
					"index":1
				},
				"metallicRoughnessTexture":{
					"index":2
				}
			}
		}
	],
	"meshes":[
		{
			"name":"Table3_1_low_Tables2_1_0",
			"primitives":[
				{
					"attributes":{
						"POSITION":0,
						"NORMAL":1,
						"TEXCOORD_0":2,
						"TEXCOORD_1":3
					},
					"indices":4,
					"material":0
				}
			]
		}
	],
	"textures":[
		{
			"sampler":0,
			"source":0
		},
		{
			"sampler":0,
			"source":1
		},
		{
			"sampler":0,
			"source":2
		}
	],
	"images":[
		{
			"mimeType":"image/png",
			"name":"Tables2_1_normal",
			"uri":"Textures/Tables2_1_normal.png"
		},
		{
			"mimeType":"image/png",
			"name":"Tables2_1_baseColor",
			"uri":"Textures/Tables2_1_baseColor.png"
		},
		{
			"mimeType":"image/png",
			"name":"Tables2_1_metallicRoughness",
			"uri":"Textures/Tables2_1_metallicRoughness.png"
		}
	],
	"accessors":[
		{
			"bufferView":0,
			"componentType":5126,
			"count":730,
			"max":[
				0.3824887275695801,
				0.9182345867156982,
				0.5993337631225586
			],
			"min":[
				-0.3861699104309082,
				0.0003771483898162842,
				-0.5045185089111328
			],
			"type":"VEC3"
		},
		{
			"bufferView":1,
			"componentType":5126,
			"count":730,
			"type":"VEC3"
		},
		{
			"bufferView":2,
			"componentType":5126,
			"count":730,
			"type":"VEC2"
		},
		{
			"bufferView":3,
			"componentType":5126,
			"count":730,
			"type":"VEC2"
		},
		{
			"bufferView":4,
			"componentType":5123,
			"count":2460,
			"type":"SCALAR"
		}
	],
	"bufferViews":[
		{
			"buffer":0,
			"byteLength":8760,
			"byteOffset":0,
			"target":34962
		},
		{
			"buffer":0,
			"byteLength":8760,
			"byteOffset":8760,
			"target":34962
		},
		{
			"buffer":0,
			"byteLength":5840,
			"byteOffset":17520,
			"target":34962
		},
		{
			"buffer":0,
			"byteLength":5840,
			"byteOffset":23360,
			"target":34962
		},
		{
			"buffer":0,
			"byteLength":4920,
			"byteOffset":29200,
			"target":34963
		}
	],
	"samplers":[
		{
			"magFilter":9729,
			"minFilter":9987
		}
	],
	"buffers":[
		{
			"byteLength":34120,
			"uri":"Table3_1.bin"
		}
	]
}
