{
	"asset":{
		"generator":"Khronos glTF Blender I/O v4.3.47",
		"version":"2.0"
	},
	"scene":0,
	"scenes":[
		{
			"name":"Scene",
			"nodes":[
				0
			]
		}
	],
	"nodes":[
		{
			"mesh":0,
			"name":"Table1"
		}
	],
	"materials":[
		{
			"doubleSided":true,
			"name":"Table1",
			"normalTexture":{
				"index":0
			},
			"pbrMetallicRoughness":{
				"baseColorTexture":{
					"index":1
				},
				"metallicRoughnessTexture":{
					"index":2
				}
			}
		}
	],
	"meshes":[
		{
			"name":"Cube070_lowLow001_Table1_0",
			"primitives":[
				{
					"attributes":{
						"POSITION":0,
						"NORMAL":1,
						"TEXCOORD_0":2,
						"TEXCOORD_1":3
					},
					"indices":4,
					"material":0
				}
			]
		}
	],
	"textures":[
		{
			"sampler":0,
			"source":0
		},
		{
			"sampler":0,
			"source":1
		},
		{
			"sampler":0,
			"source":2
		}
	],
	"images":[
		{
			"mimeType":"image/png",
			"name":"Table1_normal",
			"uri":"Textures/Table1_normal.png"
		},
		{
			"mimeType":"image/png",
			"name":"Table1_baseColor",
			"uri":"Textures/Table1_baseColor.png"
		},
		{
			"mimeType":"image/png",
			"name":"Table1_metallicRoughness",
			"uri":"Textures/Table1_metallicRoughness.png"
		}
	],
	"accessors":[
		{
			"bufferView":0,
			"componentType":5126,
			"count":671,
			"max":[
				0.5228352546691895,
				0.7838828563690186,
				1.0540822744369507
			],
			"min":[
				-0.5356898307800293,
				-5.3048133850097656e-05,
				-1.0346380472183228
			],
			"type":"VEC3"
		},
		{
			"bufferView":1,
			"componentType":5126,
			"count":671,
			"type":"VEC3"
		},
		{
			"bufferView":2,
			"componentType":5126,
			"count":671,
			"type":"VEC2"
		},
		{
			"bufferView":3,
			"componentType":5126,
			"count":671,
			"type":"VEC2"
		},
		{
			"bufferView":4,
			"componentType":5123,
			"count":2580,
			"type":"SCALAR"
		}
	],
	"bufferViews":[
		{
			"buffer":0,
			"byteLength":8052,
			"byteOffset":0,
			"target":34962
		},
		{
			"buffer":0,
			"byteLength":8052,
			"byteOffset":8052,
			"target":34962
		},
		{
			"buffer":0,
			"byteLength":5368,
			"byteOffset":16104,
			"target":34962
		},
		{
			"buffer":0,
			"byteLength":5368,
			"byteOffset":21472,
			"target":34962
		},
		{
			"buffer":0,
			"byteLength":5160,
			"byteOffset":26840,
			"target":34963
		}
	],
	"samplers":[
		{
			"magFilter":9729,
			"minFilter":9987
		}
	],
	"buffers":[
		{
			"byteLength":32000,
			"uri":"Table1.bin"
		}
	]
}
