{
	"asset":{
		"generator":"Khronos glTF Blender I/O v4.3.47",
		"version":"2.0"
	},
	"scene":0,
	"scenes":[
		{
			"name":"Scene",
			"nodes":[
				0
			]
		}
	],
	"nodes":[
		{
			"mesh":0,
			"name":"WoodCup4"
		}
	],
	"materials":[
		{
			"doubleSided":true,
			"name":"Wood_Cup",
			"normalTexture":{
				"index":0
			},
			"pbrMetallicRoughness":{
				"baseColorTexture":{
					"index":1
				},
				"metallicRoughnessTexture":{
					"index":2
				}
			}
		}
	],
	"meshes":[
		{
			"name":"WoodCup4_low_Wood Cup_0",
			"primitives":[
				{
					"attributes":{
						"POSITION":0,
						"NORMAL":1,
						"TEXCOORD_0":2,
						"TEXCOORD_1":3
					},
					"indices":4,
					"material":0
				}
			]
		}
	],
	"textures":[
		{
			"sampler":0,
			"source":0
		},
		{
			"sampler":0,
			"source":1
		},
		{
			"sampler":0,
			"source":2
		}
	],
	"images":[
		{
			"mimeType":"image/png",
			"name":"Wood_Cup_normal",
			"uri":"Textures/Wood_Cup_normal.png"
		},
		{
			"mimeType":"image/png",
			"name":"Wood_Cup_baseColor",
			"uri":"Textures/Wood_Cup_baseColor.png"
		},
		{
			"mimeType":"image/png",
			"name":"Wood_Cup_metallicRoughness",
			"uri":"Textures/Wood_Cup_metallicRoughness.png"
		}
	],
	"accessors":[
		{
			"bufferView":0,
			"componentType":5126,
			"count":277,
			"max":[
				0.17530059814453125,
				0.16786009073257446,
				0.08621716499328613
			],
			"min":[
				-0.08455193042755127,
				0.0002719983458518982,
				-0.08762478828430176
			],
			"type":"VEC3"
		},
		{
			"bufferView":1,
			"componentType":5126,
			"count":277,
			"type":"VEC3"
		},
		{
			"bufferView":2,
			"componentType":5126,
			"count":277,
			"type":"VEC2"
		},
		{
			"bufferView":3,
			"componentType":5126,
			"count":277,
			"type":"VEC2"
		},
		{
			"bufferView":4,
			"componentType":5123,
			"count":1080,
			"type":"SCALAR"
		}
	],
	"bufferViews":[
		{
			"buffer":0,
			"byteLength":3324,
			"byteOffset":0,
			"target":34962
		},
		{
			"buffer":0,
			"byteLength":3324,
			"byteOffset":3324,
			"target":34962
		},
		{
			"buffer":0,
			"byteLength":2216,
			"byteOffset":6648,
			"target":34962
		},
		{
			"buffer":0,
			"byteLength":2216,
			"byteOffset":8864,
			"target":34962
		},
		{
			"buffer":0,
			"byteLength":2160,
			"byteOffset":11080,
			"target":34963
		}
	],
	"samplers":[
		{
			"magFilter":9729,
			"minFilter":9987
		}
	],
	"buffers":[
		{
			"byteLength":13240,
			"uri":"WoodCup4.bin"
		}
	]
}
